PathFileType	4	(X/Y/Z)	OpenSim_Sub02_EMGStiffKnee_Magnet.trc
DataRate	CameraRate	NumFrames	NumMarkers	Units	OrigDataRate	OrigDataStartFrame	OrigNumFrames
100	100	26	8	m	100	3946	7890
Frame#	Time	torso_imu_offset_imu	pelvis_imu_offset_imu	tibia_r_imu_offset_imu	femur_r_imu_offset_imu	tibia_l_imu_offset_imu	femur_l_imu_offset_imu	toes_r_imu_offset_imu	toes_l_imu_offset_imu
				X1	Y1	Z1	X2	Y2	Z2	X3	Y3	Z3	X4	Y4	Z4	X5	Y5	Z5	X6	Y6	Z6	X7	Y7	Z7	X8		Y8	Z8	

3946	39.45000000	-0.93193603	-0.18990234	0.06338665	-0.54523556	0.22845048	-0.71666994	-0.58066139	-0.54285947	-0.19427072	-0.82498387	-0.19552969	0.10552405	-0.18229718	0.82082871	-0.12826344	-0.55564146	0.60383735	0.21183873	-0.65927063	-0.26916088	-0.34984670	-0.81684516	-0.03236414	0.14621068
3947	39.46000000	-0.93342154	-0.19267300	0.05879822	-0.54842869	0.22219595	-0.71776402	-0.57472843	-0.54835461	-0.19436812	-0.81943529	-0.21281190	0.10164468	-0.16293853	0.82519165	-0.12296806	-0.56697866	0.59508819	0.22056664	-0.65777978	-0.26881772	-0.34782589	-0.81385445	-0.05273082	0.15967136
3948	39.47000000	-0.93261727	-0.18709109	0.06320875	-0.54825429	0.21387930	-0.72388063	-0.57030488	-0.55856533	-0.19551709	-0.81431159	-0.22756504	0.09765864	-0.15036428	0.82871353	-0.12288721	-0.57201469	0.58490961	0.22412522	-0.65695909	-0.26917558	-0.34454403	-0.81294692	-0.07335883	0.16497077
3949	39.48000000	-0.93640920	-0.17896276	0.06612830	-0.54810827	0.20456862	-0.72481792	-0.57098263	-0.56249509	-0.20218646	-0.81461925	-0.23798984	0.09417927	-0.15671165	0.83327255	-0.11889643	-0.58370312	0.57643612	0.22562189	-0.66486710	-0.26395726	-0.33783624	-0.81633890	-0.09528497	0.16335099
3950	39.49000000	-0.93988642	-0.17382018	0.06243229	-0.55554778	0.19862741	-0.72789678	-0.56420402	-0.56447356	-0.20887796	-0.81186884	-0.24193719	0.09902709	-0.15421715	0.82898838	-0.11998203	-0.58886037	0.57101405	0.22943279	-0.66434195	-0.26254920	-0.33671605	-0.80760801	-0.12275936	0.16152384
3951	39.50000000	-0.93826862	-0.17488355	0.06296187	-0.55674663	0.19273420	-0.73304484	-0.55133714	-0.57117266	-0.20621157	-0.81363049	-0.24830670	0.10624485	-0.15895444	0.82912244	-0.10733961	-0.59174594	0.56213078	0.23346056	-0.66418872	-0.25954105	-0.32813867	-0.80446385	-0.14126332	0.15131263
3952	39.51000000	-0.94106679	-0.17222003	0.06044609	-0.55746028	0.18462920	-0.72903856	-0.54608324	-0.57702615	-0.20972168	-0.80782091	-0.25074463	0.10909078	-0.17638925	0.82629882	-0.09526925	-0.59941747	0.55790950	0.23952581	-0.66865390	-0.25709435	-0.31830844	-0.81013504	-0.15162457	0.13335777
3953	39.52000000	-0.93858747	-0.16731755	0.05585422	-0.55995561	0.18058641	-0.72368208	-0.54380204	-0.58063572	-0.20942678	-0.79603755	-0.25453211	0.11845386	-0.18944268	0.82414225	-0.08465416	-0.60330702	0.55402930	0.23918378	-0.67111339	-0.25498991	-0.31508632	-0.81205226	-0.15986446	0.11573425
3954	39.53000000	-0.94204820	-0.16750802	0.06310204	-0.56554476	0.17511434	-0.72390228	-0.54400638	-0.59042183	-0.20806354	-0.79959740	-0.25421476	0.11886817	-0.20427924	0.82147762	-0.06731381	-0.60817514	0.54777527	0.23761339	-0.67970697	-0.24660696	-0.30589616	-0.81915677	-0.15914204	0.09231964
3955	39.54000000	-0.94436213	-0.16097168	0.05846911	-0.57235109	0.16773708	-0.72082237	-0.54059853	-0.59576470	-0.21060770	-0.80539857	-0.25586315	0.12101701	-0.22665261	0.81516727	-0.06407384	-0.61440048	0.54362603	0.23807730	-0.68083141	-0.24524077	-0.29901340	-0.82461847	-0.15699516	0.06412733
3956	39.55000000	-0.93826295	-0.16142147	0.05843414	-0.58043584	0.16587439	-0.72288348	-0.52688729	-0.59908567	-0.21311753	-0.79689274	-0.26257946	0.13314111	-0.24301092	0.80610527	-0.07597797	-0.61299251	0.53977576	0.23220248	-0.68413695	-0.23991398	-0.29511212	-0.82781472	-0.15930039	0.02962922
3957	39.56000000	-0.94011555	-0.15715571	0.06115378	-0.58183889	0.15815640	-0.72403443	-0.52321579	-0.60467758	-0.21277505	-0.79447654	-0.26724769	0.13345380	-0.27306883	0.80262857	-0.09261779	-0.61953996	0.53870675	0.23161939	-0.69240952	-0.23378241	-0.28870891	-0.83769477	-0.16187985	-0.01131600
3958	39.57000000	-0.93919663	-0.15290713	0.06106630	-0.58149592	0.15697732	-0.72212360	-0.52084706	-0.60465706	-0.21323688	-0.79228391	-0.28091063	0.13802286	-0.30361311	0.78989955	-0.10364978	-0.62339512	0.53878003	0.23382852	-0.69358002	-0.22834964	-0.28063890	-0.83725508	-0.16306401	-0.05706257
3959	39.58000000	-0.94077714	-0.15766360	0.05983328	-0.58313656	0.15120962	-0.71819037	-0.51621575	-0.60810062	-0.21582926	-0.79259632	-0.28438611	0.14094446	-0.33262216	0.76693762	-0.11876791	-0.61937309	0.53908114	0.22918448	-0.68649870	-0.22476894	-0.27319094	-0.83716644	-0.16620238	-0.10297734
3960	39.59000000	-0.94147319	-0.15409982	0.05875042	-0.58587248	0.14908598	-0.71857920	-0.51044009	-0.61573771	-0.21263594	-0.78824291	-0.29056923	0.14787404	-0.36866917	0.75226610	-0.13609427	-0.61929983	0.53766282	0.22407474	-0.68671604	-0.22507176	-0.26924281	-0.83398845	-0.16445446	-0.15967037
3961	39.60000000	-0.94360353	-0.14856043	0.05796022	-0.58792880	0.13900213	-0.71450765	-0.50297305	-0.61916468	-0.21555076	-0.78085593	-0.29813661	0.15521001	-0.39955091	0.73407024	-0.14660436	-0.62322808	0.53785012	0.21441289	-0.69209548	-0.22543300	-0.26395364	-0.82659357	-0.16138185	-0.21345710
3962	39.61000000	-0.94227543	-0.14829887	0.05978068	-0.59658409	0.13493867	-0.72041011	-0.50314275	-0.62361942	-0.21654500	-0.77805484	-0.30512420	0.15263676	-0.43294827	0.71639108	-0.14939876	-0.62933037	0.54249390	0.22037754	-0.69122457	-0.21991389	-0.26565419	-0.81156370	-0.16099270	-0.26048662
3963	39.62000000	-0.94640666	-0.14602205	0.05997186	-0.59390034	0.14090852	-0.72360362	-0.49613160	-0.62727619	-0.21815061	-0.77693093	-0.31204587	0.15833940	-0.46476609	0.69394511	-0.14546214	-0.62425866	0.54292770	0.21499029	-0.69511927	-0.22448805	-0.26028420	-0.79294689	-0.16666291	-0.31123915
3964	39.63000000	-0.94706386	-0.13945081	0.06225391	-0.59896037	0.13373999	-0.72303097	-0.48812325	-0.63323828	-0.21974147	-0.76914176	-0.31610971	0.16334333	-0.49211763	0.67242213	-0.13814917	-0.62351669	0.54486436	0.20460366	-0.69254529	-0.22974832	-0.26049617	-0.76618796	-0.17789627	-0.35509353
3965	39.64000000	-0.94048981	-0.13735292	0.06392664	-0.60075598	0.12450839	-0.72686623	-0.48180969	-0.63583640	-0.21523230	-0.77247475	-0.31846368	0.16756435	-0.52102108	0.65268370	-0.12056605	-0.63389319	0.54734305	0.20284986	-0.68932048	-0.22677451	-0.26417840	-0.74234002	-0.18755047	-0.38540959
3966	39.65000000	-0.94568263	-0.13666785	0.06227048	-0.59341936	0.12301291	-0.72428840	-0.47643763	-0.64169180	-0.22200882	-0.77137759	-0.31955881	0.17271017	-0.54358881	0.62891977	-0.10597278	-0.63477408	0.54317270	0.19842743	-0.69177292	-0.23219453	-0.26989040	-0.71644893	-0.19760905	-0.41205857
3967	39.66000000	-0.94753453	-0.13569763	0.06177773	-0.59420077	0.11696243	-0.72582800	-0.47115742	-0.64775566	-0.22231201	-0.76716198	-0.32431401	0.17133132	-0.56940607	0.61081446	-0.09128058	-0.62851113	0.54084592	0.19060909	-0.69373952	-0.23580986	-0.27043896	-0.69856692	-0.21405493	-0.43523011
3968	39.67000000	-0.94402220	-0.13354521	0.06357236	-0.59015884	0.10919165	-0.73147926	-0.46585827	-0.64835570	-0.21670470	-0.76134973	-0.32820498	0.17429036	-0.59304606	0.59206215	-0.07239305	-0.63688307	0.54013915	0.17726995	-0.69130195	-0.24090109	-0.27416887	-0.67575670	-0.22296823	-0.45524599
3969	39.68000000	-0.94550600	-0.12650324	0.06375150	-0.58656486	0.10597405	-0.72724339	-0.45951891	-0.66055187	-0.21316489	-0.76257041	-0.33291361	0.18253360	-0.61202161	0.57324635	-0.06145230	-0.64402879	0.53215167	0.17827668	-0.69239706	-0.24680738	-0.27644959	-0.65229673	-0.23704434	-0.46102623
3970	39.69000000	-0.94769522	-0.12023416	0.06536859	-0.58416198	0.09606206	-0.72744306	-0.45232579	-0.66683799	-0.20983015	-0.76533714	-0.34009110	0.18065680	-0.62492005	0.55964875	-0.05244208	-0.64628806	0.52207567	0.18599802	-0.69417435	-0.25441542	-0.28120528	-0.64139928	-0.24739935	-0.47295960
3971	39.70000000	-0.94669717	-0.11981431	0.07008210	-0.58846868	0.09083375	-0.73115027	-0.44747740	-0.67349397	-0.20606682	-0.76538374	-0.34308786	0.18077681	-0.63697789	0.54501992	-0.04076285	-0.65050028	0.51776764	0.18778037	-0.69735713	-0.25930676	-0.27833315	-0.63401383	-0.25524393	-0.47913191
